# xmcd
#
# Track frame offsets: 
#        150
#        16803
#        27434
#        38964
#        50260
#        61893
#        75852
#        86325
#        96658
#        108943
#        123400
#        135539
#        147066
#        157093
#        173264
#        186595
#        198322
#        211814
#        224899
#        237137
#        252206
#        262900
#        276110
#        287150
#
# Disc length: 4281 seconds
#
# Revision: 2
# Processed by: cddbd v1.5.2PL0 Copyright (c) Steve Scherf et al.
# Submitted via: ExactAudioCopy v1.0b1
#
DISCID=5110b718
DTITLE=Various Artist - Straight To Watts: The Central Avenue Scene Vol. 1
DYEAR=2003
DGENRE=R&B
TTITLE0=Jake Porter - Slowly Go Out Of Your Mind
TTITLE1=Chuck Higgins and His Mellotones - Motor Head Baby
TTITLE2=Chuck Hamilton Combo - Baby I Don't Want You No More
TTITLE3=Gene Phillips - I Owe Everybody
TTITLE4=Frankie Ervin and His Band - I Got Hi
TTITLE5=Jimmy O'Brien - Straight To Watts
TTITLE6=Ernie Fields Combo - T-Town Mambo
TTITLE7=Johnny Moore's Three Blazers - Ridin' Mighty High
TTITLE8=Jack McVea Combo - Oh How The Geese Did Fly!
TTITLE9=Chuck Higgins and His Mellotones - Ain't Gonna Leave Baby
TTITLE10=Tal Carter - Mama And Papa
TTITLE11=Honey Coleman - Talk About A Girl Child Being Down
TTITLE12=Johnny Moore's Three Blazers - Take Off My Wig
TTITLE13=The Duchess with Jake Porter Combo - The Monkey
TTITLE14=Jake Porter - The Whang
TTITLE15=Betty Hall Jones - Frustration, Frustration
TTITLE16=Gene Phillips - Fish Man
TTITLE17=Chuck Higgins and His Mellotones - Stormy
TTITLE18=Brother Woodman and Candy Rivers - Hi-Ho Silver
TTITLE19=Smokey Hogg - Where Have You Been
TTITLE20=Frankie Ervin and His Band - A Soul Without A Name
TTITLE21=Palmer - Hot Dog! That Made Him Mad
TTITLE22=Jake Porter - Safronia #1
TTITLE23=Rozelle Gayle - The House of Blue Lights
EXTD=
EXTT0=
EXTT1=
EXTT2=
EXTT3=
EXTT4=
EXTT5=
EXTT6=
EXTT7=
EXTT8=
EXTT9=
EXTT10=
EXTT11=
EXTT12=
EXTT13=
EXTT14=
EXTT15=
EXTT16=
EXTT17=
EXTT18=
EXTT19=
EXTT20=
EXTT21=
EXTT22=
EXTT23=
PLAYORDER=
